<!-- Generated by IcoMoon.io -->
<svg version="1.1" xmlns="http://www.w3.org/2000/svg" width="512" height="512" viewBox="0 0 512 512">
<title></title>
<g id="icomoon-ignore">
</g>
<path fill="#000" d="M504.978 457.88v0l-218.537-435.556c-8.371-14.883-19.406-22.324-30.441-22.324s-22.070 7.441-30.442 22.324l-218.537 435.556c-16.743 29.766-2.5 54.12 31.652 54.12h434.654c34.151 0 48.396-24.354 31.651-54.12zM256 448c-17.673 0-32-14.327-32-32s14.327-32 32-32c17.674 0 32 14.326 32 32s-14.326 32-32 32zM288 320c0 17.673-14.327 32-32 32s-32-14.327-32-32v-96c0-17.673 14.327-32 32-32s32 14.327 32 32v96z"></path>
</svg>
