<!-- Generated by IcoMoon.io -->
<svg version="1.1" xmlns="http://www.w3.org/2000/svg" width="512" height="512" viewBox="0 0 512 512">
<title></title>
<g id="icomoon-ignore">
</g>
<path fill="#000" d="M128 384h256v64h-256zM480 96c-17.673 0-32 14.327-32 32 0 6.567 1.981 12.67 5.375 17.75l-117.375 78.25-12.031-96.254c15.799-1.955 28.031-15.417 28.031-31.746 0-17.673-14.327-32-32-32s-32 14.327-32 32c0 12.528 7.203 23.367 17.689 28.621l-49.689 99.379-49.689-99.379c10.486-5.254 17.689-16.093 17.689-28.621 0-17.673-14.327-32-32-32s-32 14.327-32 32c0 16.329 12.232 29.791 28.032 31.746l-12.032 96.254-117.374-78.25c3.393-5.079 5.374-11.183 5.374-17.75 0-17.673-14.327-32-32-32s-32 14.327-32 32 14.327 32 32 32c4.478 0 8.738-0.923 12.607-2.583l83.393 194.583h256l83.393-194.583c3.869 1.66 8.13 2.583 12.607 2.583 17.673 0 32-14.327 32-32s-14.327-32-32-32z"></path>
</svg>
