<!-- Generated by IcoMoon.io -->
<svg version="1.1" xmlns="http://www.w3.org/2000/svg" width="512" height="512" viewBox="0 0 512 512">
<title></title>
<g id="icomoon-ignore">
</g>
<path d="M416 96v-64h-320v64h-96v64c0 53.019 42.979 96 96 96 10.038 0 19.715-1.543 28.81-4.401 23.087 33.004 58.304 56.898 99.19 65.198v99.203h-32c-35.347 0-64 28.653-64 64h256c0-35.347-28.653-64-64-64h-32v-99.203c40.886-8.3 76.103-32.193 99.19-65.198 9.095 2.858 18.772 4.401 28.81 4.401 53.021 0 96-42.981 96-96v-64h-96zM96 218c-31.981 0-58-26.019-58-58v-32h58v32c0 20.093 3.715 39.316 10.477 57.034-3.401 0.623-6.899 0.966-10.477 0.966zM474 160c0 31.981-26.019 58-58 58-3.578 0-7.076-0.343-10.477-0.966 6.762-17.718 10.477-36.941 10.477-57.034v-32h58v32z"></path>
</svg>
