<!-- Generated by IcoMoon.io -->
<svg version="1.1" xmlns="http://www.w3.org/2000/svg" width="512" height="512" viewBox="0 0 512 512">
<title></title>
<g id="icomoon-ignore">
</g>
<path fill="#000" d="M409.706 102.294c-45.33-45.33-105.6-70.294-169.706-70.294s-124.375 24.964-169.706 70.294-70.294 105.6-70.294 169.706c0 8.836 7.164 16 16 16 61.757 0 112 50.243 112 112v64c0 8.837 7.164 16 16 16s16-7.163 16-16v-64c0-8.837 7.164-16 16-16s16 7.163 16 16v96c0 8.837 7.164 16 16 16s16-7.163 16-16v-96c0-8.837 7.163-16 16-16s16 7.163 16 16v96c0 8.837 7.164 16 16 16s16-7.163 16-16v-96c0-8.837 7.163-16 16-16s16 7.163 16 16v64c0 8.837 7.164 16 16 16s16-7.163 16-16v-64c0-61.757 50.243-112 112-112 8.837 0 16-7.164 16-16 0-64.106-24.964-124.375-70.294-169.706zM192 224c0 17.6-14.4 32-32 32h-32c-17.6 0-32-14.4-32-32v-32c0-17.6 14.4-32 32-32h32c17.6 0 32 14.4 32 32v32zM384 224c0 17.6-14.4 32-32 32h-32c-17.6 0-32-14.4-32-32v-32c0-17.6 14.4-32 32-32h32c17.6 0 32 14.4 32 32v32z"></path>
</svg>
