<!-- Generated by IcoMoon.io -->
<svg version="1.1" xmlns="http://www.w3.org/2000/svg" width="512" height="512" viewBox="0 0 512 512">
<title></title>
<g id="icomoon-ignore">
</g>
<path fill="#000" d="M505.365 112.030c-9.915-17.175-30.021-25.883-59.756-25.883-21.674 0-48.428 4.748-78.262 13.523-31.425-22.447-69.87-35.67-111.347-35.67-105.869 0-192 86.131-192 192 0 6.159 0.304 12.248 0.874 18.26-5.502 5.245-10.723 10.467-15.628 15.646-19.125 20.196-32.785 38.978-40.601 55.822-6.774 14.6-12.621 35.861-2.009 54.242 9.916 17.175 30.021 25.883 59.757 25.883 21.671 0 48.427-4.754 78.254-13.528 31.427 22.45 69.874 35.675 111.353 35.675 105.869 0 192-86.131 192-192 0-6.158-0.304-12.245-0.873-18.256 5.5-5.246 10.722-10.468 15.628-15.649 19.125-20.196 32.785-38.977 40.601-55.823 6.774-14.6 12.621-35.861 2.009-54.242zM256 96c76.234 0 140.177 53.595 156.151 125.083-33.514 30.175-76.791 61.004-125.016 88.846-48.080 27.76-96.982 49.888-139.406 63.763-31.781-29.261-51.729-71.188-51.729-117.692 0-88.224 71.776-160 160-160zM37.813 381.971c-3.377-5.849-0.064-27.015 35.934-65.557 8.335 25.080 21.712 47.876 38.923 67.188-17.473 4.069-33.148 6.252-46.277 6.252-17.716 0-26.38-4.073-28.58-7.883zM256 416c-25.783 0-50.156-6.139-71.748-17.018 38.247-14.396 79.657-34.074 120.884-57.876 41.045-23.697 78.808-49.61 110.579-75.674-4.9 83.85-74.657 150.568-159.715 150.568zM438.253 195.586c-8.335-25.081-21.712-47.877-38.925-67.189 17.478-4.073 33.148-6.25 46.28-6.25 17.716 0 26.379 4.072 28.579 7.883 3.378 5.849 0.065 27.015-35.934 65.556z"></path>
</svg>
