<!-- Generated by IcoMoon.io -->
<svg version="1.1" xmlns="http://www.w3.org/2000/svg" width="512" height="512" viewBox="0 0 512 512">
<title></title>
<g id="icomoon-ignore">
</g>
<path fill="#000" d="M504.915 112.289c-9.989-17.302-30.188-26.075-60.038-26.075-21.509 0-48.026 4.685-77.585 13.34-31.393-22.378-69.8-35.554-111.292-35.554-106.039 0-192 85.961-192 192 0 6.077 0.298 12.084 0.851 18.017-5.425 5.179-10.576 10.335-15.42 15.45-19.103 20.172-32.751 38.94-40.567 55.784-6.807 14.671-12.677 36.049-1.98 54.576 9.989 17.302 30.189 26.075 60.039 26.075 21.571 0 48.18-4.713 77.841-13.416 31.384 22.353 69.769 35.514 111.236 35.514 106.039 0 192-85.961 192-192 0-6.1-0.304-12.126-0.863-18.080 5.356-5.119 10.442-10.215 15.231-15.272 19.103-20.172 32.752-38.941 40.567-55.785 6.807-14.67 12.678-36.047 1.98-54.574zM435.503 197.208c-35.258 37.232-88.122 77.047-148.854 112.111-83.735 48.346-169.983 79.584-219.727 79.584-17.417 0-25.882-3.913-27.996-7.575-3.799-6.579 2.576-28.943 35.093-63.98 3.943 11.697 8.979 22.893 14.992 33.461 40.608-6.736 105.629-29.936 179.638-72.666 57.807-33.375 107.78-70.909 140.714-105.688 4.749-5.015 8.769-9.613 12.164-13.773-6.206-10.533-13.393-20.42-21.427-29.541 16.88-3.863 32.032-5.926 44.776-5.926 17.416 0 25.881 3.913 27.995 7.575 3.888 6.731-2.857 29.974-37.368 66.418z"></path>
</svg>
