<!-- Generated by IcoMoon.io -->
<svg version="1.1" xmlns="http://www.w3.org/2000/svg" width="576" height="512" viewBox="0 0 576 512">
<title></title>
<g id="icomoon-ignore">
</g>
<path d="M384 385.306v-26.39c35.249-19.864 64-69.386 64-118.916 0-79.529 0-144-96-144s-96 64.471-96 144c0 49.53 28.751 99.052 64 118.916v26.39c-108.551 8.874-192 62.21-192 126.694h448c0-64.484-83.449-117.82-192-126.694z"></path>
<path d="M163.598 397.664c27.655-18.075 62.040-31.818 99.894-40.207-7.527-8.892-14.354-18.811-20.246-29.51-15.207-27.617-23.246-58.029-23.246-87.947 0-43.021 0-83.655 15.3-116.881 14.853-32.252 41.564-52.248 79.611-59.744-8.457-38.24-30.97-63.375-90.911-63.375-96 0-96 64.471-96 144 0 49.53 28.751 99.052 64 118.916v26.39c-108.551 8.874-192 62.21-192 126.694h139.503c7.259-6.455 15.298-12.586 24.095-18.336z"></path>
</svg>
