<?xml version="1.0" encoding="utf-8"?>
<!-- Generator: Adobe Illustrator 24.2.0, SVG Export Plug-In . SVG Version: 6.00 Build 0)  -->
<svg version="1.1" id="Layer_1" xmlns="http://www.w3.org/2000/svg" xmlns:xlink="http://www.w3.org/1999/xlink" x="0px" y="0px"
	 viewBox="0 0 512 512" style="enable-background:new 0 0 512 512;" xml:space="preserve">
<path d="M-0.5,166.3v305.1h512V166.3H-0.5z M95.8,441.7h-64v-64h32v32h32V441.7z M95.8,226.6h-32v32h-32v-64h64V226.6z M237.2,371.3
	c8.3,0,15,6.7,15,15s-6.7,15-15,15H120c-5.9,0-11.2-3.4-13.6-8.7c-2.4-5.3-1.6-11.6,2.2-16l96-112.3H120c-8.3,0-15-6.7-15-15
	s6.7-15,15-15h117.2c5.9,0,11.2,3.4,13.6,8.7c2.4,5.3,1.6,11.6-2.2,16l-96,112.3H237.2z M400.7,397.8c-2.8,2.4-6.3,3.6-9.7,3.6
	c-4.2,0-8.5-1.8-11.4-5.3l-44.5-52.3l-41.3,51.9c-2.9,3.7-7.3,5.7-11.7,5.7c-1.7,0-3.3-0.3-4.9-0.8c-6-2.1-10.1-7.8-10.1-14.2v-137
	c0-8.3,6.7-15,15-15s15,6.7,15,15v94l25.8-32.4c0,0,0,0,0.1-0.1l56.3-70.9c5.2-6.5,14.6-7.6,21.1-2.4c6.5,5.2,7.6,14.6,2.4,21.1
	l-48.6,61.1l48.3,56.8C407.7,382.9,407,392.4,400.7,397.8z M486.8,441.7h-64v-32h32v-32h32V441.7z M486.8,258.6h-32v-32h-32v-32h64
	V258.6z M35.8,102.9h439.5V150H35.8V102.9z M73.2,39.6h364.7v47.1H73.2V39.6z"/>
</svg>
