<!-- Generated by IcoMoon.io -->
<svg version="1.1" xmlns="http://www.w3.org/2000/svg" width="512" height="512" viewBox="0 0 512 512">
<title></title>
<g id="icomoon-ignore">
</g>
<path d="M464 64h-416c-26.4 0-48 21.6-48 48v288c0 26.4 21.6 48 48 48h416c26.4 0 48-21.6 48-48v-288c0-26.4-21.6-48-48-48zM48 96h416c8.673 0 16 7.327 16 16v48h-448v-48c0-8.673 7.327-16 16-16zM464 416h-416c-8.673 0-16-7.327-16-16v-144h448v144c0 8.673-7.327 16-16 16zM64 320h32v64h-32zM128 320h32v64h-32zM192 320h32v64h-32z"></path>
</svg>
